<?xml version="1.0" encoding="UTF-8"?>
<svg xmlns="http://www.w3.org/2000/svg" width="512" height="512" viewBox="0 0 512 512" role="img" aria-labelledby="title desc">
<title id="title">Nessus Intelligence N monogram</title>
<desc id="desc">Outlined Nessus Intelligence logo artwork</desc>


<path d="M 56 100 L 56 220 L 55 221 L 55 226 L 54 227 L 54 229 L 53 230 L 53 231 L 52 232 L 52 234 L 50 236 L 50 237 L 42 245 L 41 245 L 39 247 L 38 247 L 37 248 L 35 248 L 34 249 L 32 249 L 31 250 L 29 250 L 89 250 L 87 250 L 86 249 L 84 249 L 83 248 L 81 248 L 80 247 L 79 247 L 78 246 L 77 246 L 74 243 L 73 243 L 68 238 L 68 237 L 66 235 L 66 234 L 65 233 L 65 232 L 64 231 L 64 229 L 63 228 L 63 226 L 62 225 L 62 221 L 61 220 L 61 142 L 62 141 L 69 148 L 69 149 L 86 166 L 86 167 L 103 184 L 103 185 L 117 199 L 117 200 L 132 215 L 132 216 L 147 231 L 147 232 L 159 244 L 159 245 L 161 247 L 161 248 L 162 249 L 162 250 L 204 250 L 202 250 L 201 249 L 199 249 L 198 248 L 197 248 L 196 247 L 195 247 L 194 246 L 193 246 L 191 244 L 190 244 L 187 241 L 186 241 L 175 230 L 175 229 L 163 217 L 163 216 L 152 205 L 152 204 L 137 189 L 137 188 L 119 170 L 119 169 L 102 152 L 102 151 L 84 133 L 84 132 L 68 116 L 68 115 L 60 107 L 60 106 L 58 104 L 58 103 L 57 102 L 57 101 Z M 28 22 L 31 22 L 32 23 L 35 23 L 36 24 L 37 24 L 38 25 L 40 25 L 41 26 L 42 26 L 43 27 L 44 27 L 45 28 L 46 28 L 48 30 L 49 30 L 52 33 L 53 33 L 66 46 L 66 47 L 83 64 L 83 65 L 99 81 L 99 82 L 113 96 L 113 97 L 129 113 L 129 114 L 147 132 L 147 133 L 163 149 L 163 150 L 180 167 L 180 168 L 201 189 L 201 190 L 219 208 L 219 209 L 229 219 L 229 220 L 233 224 L 233 225 L 235 227 L 235 228 L 236 229 L 236 230 L 237 231 L 237 232 L 238 233 L 238 234 L 239 235 L 239 236 L 240 237 L 240 239 L 241 240 L 241 242 L 241 240 L 242 239 L 242 55 L 243 54 L 243 50 L 244 49 L 244 47 L 245 46 L 245 44 L 246 43 L 246 42 L 248 40 L 248 39 L 250 37 L 250 36 L 257 29 L 258 29 L 260 27 L 261 27 L 262 26 L 263 26 L 264 25 L 265 25 L 266 24 L 267 24 L 268 23 L 270 23 L 271 22 L 273 22 L 206 22 L 208 22 L 209 23 L 211 23 L 212 24 L 213 24 L 214 25 L 216 25 L 217 26 L 218 26 L 220 28 L 221 28 L 230 37 L 230 38 L 231 39 L 231 40 L 233 42 L 233 44 L 234 45 L 234 47 L 235 48 L 235 51 L 236 52 L 236 58 L 237 59 L 237 187 L 236 188 L 216 168 L 216 167 L 201 152 L 201 151 L 184 134 L 184 133 L 168 117 L 168 116 L 154 102 L 154 101 L 140 87 L 140 86 L 125 71 L 125 70 L 110 55 L 110 54 L 96 40 L 96 39 L 87 30 L 87 29 L 80 22 Z" fill="#C6A15B" fill-rule="evenodd" transform="translate(105 75) scale(1.0)"/>
</svg>
