<?xml version="1.0" encoding="UTF-8"?>
<svg xmlns="http://www.w3.org/2000/svg" width="1000" height="760" viewBox="0 0 1000 760" role="img" aria-labelledby="title desc">
<title id="title">Nessus Intelligence stacked logo</title>
<desc id="desc">Outlined Nessus Intelligence logo artwork</desc>

<path d="M 56 100 L 56 220 L 55 221 L 55 226 L 54 227 L 54 229 L 53 230 L 53 231 L 52 232 L 52 234 L 50 236 L 50 237 L 42 245 L 41 245 L 39 247 L 38 247 L 37 248 L 35 248 L 34 249 L 32 249 L 31 250 L 29 250 L 89 250 L 87 250 L 86 249 L 84 249 L 83 248 L 81 248 L 80 247 L 79 247 L 78 246 L 77 246 L 74 243 L 73 243 L 68 238 L 68 237 L 66 235 L 66 234 L 65 233 L 65 232 L 64 231 L 64 229 L 63 228 L 63 226 L 62 225 L 62 221 L 61 220 L 61 142 L 62 141 L 69 148 L 69 149 L 86 166 L 86 167 L 103 184 L 103 185 L 117 199 L 117 200 L 132 215 L 132 216 L 147 231 L 147 232 L 159 244 L 159 245 L 161 247 L 161 248 L 162 249 L 162 250 L 204 250 L 202 250 L 201 249 L 199 249 L 198 248 L 197 248 L 196 247 L 195 247 L 194 246 L 193 246 L 191 244 L 190 244 L 187 241 L 186 241 L 175 230 L 175 229 L 163 217 L 163 216 L 152 205 L 152 204 L 137 189 L 137 188 L 119 170 L 119 169 L 102 152 L 102 151 L 84 133 L 84 132 L 68 116 L 68 115 L 60 107 L 60 106 L 58 104 L 58 103 L 57 102 L 57 101 Z M 28 22 L 31 22 L 32 23 L 35 23 L 36 24 L 37 24 L 38 25 L 40 25 L 41 26 L 42 26 L 43 27 L 44 27 L 45 28 L 46 28 L 48 30 L 49 30 L 52 33 L 53 33 L 66 46 L 66 47 L 83 64 L 83 65 L 99 81 L 99 82 L 113 96 L 113 97 L 129 113 L 129 114 L 147 132 L 147 133 L 163 149 L 163 150 L 180 167 L 180 168 L 201 189 L 201 190 L 219 208 L 219 209 L 229 219 L 229 220 L 233 224 L 233 225 L 235 227 L 235 228 L 236 229 L 236 230 L 237 231 L 237 232 L 238 233 L 238 234 L 239 235 L 239 236 L 240 237 L 240 239 L 241 240 L 241 242 L 241 240 L 242 239 L 242 55 L 243 54 L 243 50 L 244 49 L 244 47 L 245 46 L 245 44 L 246 43 L 246 42 L 248 40 L 248 39 L 250 37 L 250 36 L 257 29 L 258 29 L 260 27 L 261 27 L 262 26 L 263 26 L 264 25 L 265 25 L 266 24 L 267 24 L 268 23 L 270 23 L 271 22 L 273 22 L 206 22 L 208 22 L 209 23 L 211 23 L 212 24 L 213 24 L 214 25 L 216 25 L 217 26 L 218 26 L 220 28 L 221 28 L 230 37 L 230 38 L 231 39 L 231 40 L 233 42 L 233 44 L 234 45 L 234 47 L 235 48 L 235 51 L 236 52 L 236 58 L 237 59 L 237 187 L 236 188 L 216 168 L 216 167 L 201 152 L 201 151 L 184 134 L 184 133 L 168 117 L 168 116 L 154 102 L 154 101 L 140 87 L 140 86 L 125 71 L 125 70 L 110 55 L 110 54 L 96 40 L 96 39 L 87 30 L 87 29 L 80 22 Z" fill="#C6A15B" fill-rule="evenodd" transform="translate(347.5 20)"/>
<path d="M 619 27 L 619 28 L 620 28 L 621 29 L 622 29 L 625 32 L 625 33 L 626 34 L 626 99 L 627 100 L 627 105 L 628 106 L 628 109 L 629 110 L 629 111 L 630 112 L 630 113 L 631 114 L 631 115 L 632 116 L 632 117 L 634 119 L 634 120 L 639 125 L 640 125 L 642 127 L 643 127 L 645 129 L 646 129 L 647 130 L 649 130 L 650 131 L 651 131 L 652 132 L 655 132 L 656 133 L 660 133 L 661 134 L 678 134 L 679 133 L 682 133 L 683 132 L 686 132 L 687 131 L 688 131 L 689 130 L 690 130 L 691 129 L 692 129 L 693 128 L 694 128 L 696 126 L 697 126 L 703 120 L 703 119 L 705 117 L 705 116 L 706 115 L 706 114 L 707 113 L 707 112 L 708 111 L 708 109 L 709 108 L 709 104 L 710 103 L 710 92 L 711 91 L 711 89 L 710 88 L 710 39 L 711 38 L 711 34 L 712 33 L 712 32 L 715 29 L 716 29 L 717 28 L 719 28 L 719 27 L 696 27 L 696 28 L 698 28 L 699 29 L 700 29 L 704 33 L 704 35 L 705 36 L 705 100 L 704 101 L 704 105 L 703 106 L 703 108 L 702 109 L 702 110 L 701 111 L 701 112 L 700 113 L 700 114 L 691 123 L 690 123 L 689 124 L 688 124 L 687 125 L 686 125 L 685 126 L 683 126 L 682 127 L 678 127 L 677 128 L 668 128 L 667 127 L 662 127 L 661 126 L 659 126 L 658 125 L 657 125 L 656 124 L 655 124 L 654 123 L 653 123 L 645 115 L 645 114 L 644 113 L 644 112 L 643 111 L 643 110 L 642 109 L 642 106 L 641 105 L 641 102 L 640 101 L 640 35 L 641 34 L 641 33 L 642 32 L 642 31 L 643 30 L 644 30 L 646 28 L 648 28 L 648 27 Z M 196 27 L 196 28 L 198 28 L 199 29 L 200 29 L 203 32 L 203 33 L 204 34 L 204 37 L 205 38 L 205 47 L 204 48 L 204 69 L 205 70 L 205 76 L 204 77 L 204 108 L 205 109 L 205 110 L 204 111 L 204 125 L 203 126 L 203 127 L 199 131 L 197 131 L 196 132 L 274 132 L 274 129 L 275 128 L 275 124 L 276 123 L 276 117 L 277 116 L 277 112 L 275 114 L 275 115 L 267 123 L 266 123 L 265 124 L 264 124 L 263 125 L 262 125 L 261 126 L 256 126 L 255 127 L 220 127 L 219 126 L 219 82 L 220 81 L 249 81 L 250 82 L 252 82 L 253 83 L 254 83 L 259 88 L 259 89 L 260 90 L 260 91 L 261 91 L 261 66 L 260 66 L 260 67 L 259 68 L 259 69 L 253 75 L 250 75 L 249 76 L 220 76 L 219 75 L 219 33 L 220 32 L 253 32 L 254 33 L 258 33 L 259 34 L 261 34 L 263 36 L 264 36 L 269 41 L 269 42 L 271 44 L 271 45 L 272 46 L 272 34 L 271 33 L 271 27 Z M 26 27 L 26 28 L 28 28 L 30 30 L 31 30 L 33 32 L 33 33 L 34 34 L 34 35 L 35 36 L 35 124 L 34 125 L 34 126 L 33 127 L 33 128 L 31 130 L 30 130 L 29 131 L 28 131 L 27 132 L 26 132 L 50 132 L 49 131 L 47 131 L 42 126 L 42 124 L 41 123 L 41 44 L 42 43 L 44 45 L 44 46 L 49 51 L 49 52 L 53 56 L 53 57 L 57 61 L 57 62 L 62 67 L 62 68 L 67 73 L 67 74 L 71 78 L 71 79 L 76 84 L 76 85 L 81 90 L 81 91 L 84 94 L 84 95 L 89 100 L 89 101 L 93 105 L 93 106 L 97 110 L 97 111 L 101 115 L 101 116 L 105 120 L 105 121 L 109 125 L 109 126 L 113 130 L 113 131 L 115 133 L 119 133 L 119 37 L 120 36 L 120 34 L 121 33 L 121 32 L 124 29 L 125 29 L 126 28 L 128 28 L 128 27 L 105 27 L 105 28 L 107 28 L 108 29 L 109 29 L 112 32 L 112 33 L 113 34 L 113 37 L 114 38 L 114 106 L 113 107 L 108 102 L 108 101 L 103 96 L 103 95 L 99 91 L 99 90 L 95 86 L 95 85 L 91 81 L 91 80 L 86 75 L 86 74 L 82 70 L 82 69 L 77 64 L 77 63 L 73 59 L 73 58 L 69 54 L 69 53 L 65 49 L 65 48 L 60 43 L 60 42 L 55 37 L 55 36 L 51 32 L 51 31 L 47 27 Z M 812 25 L 811 26 L 807 26 L 806 27 L 803 27 L 802 28 L 800 28 L 799 29 L 798 29 L 796 31 L 795 31 L 793 33 L 792 33 L 789 36 L 789 37 L 787 39 L 787 40 L 786 41 L 786 42 L 785 43 L 785 45 L 784 46 L 784 60 L 785 61 L 785 63 L 786 64 L 786 65 L 787 66 L 787 67 L 789 69 L 789 70 L 793 74 L 794 74 L 797 77 L 798 77 L 799 78 L 800 78 L 801 79 L 802 79 L 803 80 L 804 80 L 805 81 L 806 81 L 807 82 L 808 82 L 809 83 L 810 83 L 811 84 L 812 84 L 813 85 L 814 85 L 815 86 L 817 86 L 818 87 L 819 87 L 820 88 L 821 88 L 822 89 L 823 89 L 824 90 L 825 90 L 826 91 L 827 91 L 829 93 L 830 93 L 837 100 L 837 101 L 838 102 L 838 104 L 839 105 L 839 114 L 838 115 L 838 116 L 837 117 L 837 119 L 830 126 L 829 126 L 828 127 L 826 127 L 825 128 L 823 128 L 822 129 L 810 129 L 809 128 L 806 128 L 805 127 L 803 127 L 802 126 L 801 126 L 799 124 L 798 124 L 789 115 L 789 114 L 787 112 L 787 111 L 786 110 L 786 109 L 784 107 L 784 106 L 783 105 L 783 110 L 782 111 L 782 124 L 784 126 L 785 126 L 786 127 L 787 127 L 788 128 L 789 128 L 790 129 L 792 129 L 793 130 L 795 130 L 796 131 L 798 131 L 799 132 L 801 132 L 802 133 L 807 133 L 808 134 L 823 134 L 824 133 L 828 133 L 829 132 L 831 132 L 832 131 L 833 131 L 834 130 L 835 130 L 836 129 L 837 129 L 839 127 L 840 127 L 846 121 L 846 120 L 848 118 L 848 117 L 849 116 L 849 114 L 850 113 L 850 110 L 851 109 L 851 99 L 850 98 L 850 95 L 849 94 L 849 92 L 847 90 L 847 89 L 844 86 L 844 85 L 842 83 L 841 83 L 838 80 L 837 80 L 836 79 L 835 79 L 833 77 L 832 77 L 831 76 L 830 76 L 829 75 L 828 75 L 827 74 L 825 74 L 824 73 L 823 73 L 822 72 L 821 72 L 820 71 L 819 71 L 818 70 L 817 70 L 816 69 L 815 69 L 814 68 L 813 68 L 812 67 L 811 67 L 810 66 L 809 66 L 808 65 L 807 65 L 806 64 L 805 64 L 803 62 L 802 62 L 798 58 L 798 57 L 796 55 L 796 52 L 795 51 L 795 45 L 796 44 L 796 41 L 797 40 L 797 39 L 803 33 L 804 33 L 805 32 L 806 32 L 807 31 L 810 31 L 811 30 L 821 30 L 822 31 L 825 31 L 826 32 L 827 32 L 828 33 L 829 33 L 831 35 L 832 35 L 837 40 L 837 41 L 840 44 L 840 45 L 841 46 L 841 47 L 842 48 L 842 49 L 843 50 L 843 51 L 845 51 L 845 33 L 844 32 L 843 32 L 842 31 L 841 31 L 840 30 L 838 30 L 837 29 L 835 29 L 834 28 L 832 28 L 831 27 L 828 27 L 827 26 L 821 26 L 820 25 Z M 515 25 L 514 26 L 510 26 L 509 27 L 506 27 L 505 28 L 504 28 L 503 29 L 502 29 L 501 30 L 500 30 L 499 31 L 498 31 L 495 34 L 494 34 L 493 35 L 493 36 L 490 39 L 490 40 L 489 41 L 489 42 L 488 43 L 488 45 L 487 46 L 487 49 L 486 50 L 486 56 L 487 57 L 487 61 L 488 62 L 488 63 L 489 64 L 489 65 L 490 66 L 490 67 L 491 68 L 491 69 L 497 75 L 498 75 L 500 77 L 501 77 L 502 78 L 503 78 L 504 79 L 505 79 L 506 80 L 507 80 L 508 81 L 509 81 L 510 82 L 511 82 L 512 83 L 513 83 L 514 84 L 515 84 L 516 85 L 517 85 L 518 86 L 520 86 L 521 87 L 522 87 L 523 88 L 524 88 L 525 89 L 526 89 L 527 90 L 528 90 L 529 91 L 530 91 L 532 93 L 533 93 L 540 100 L 540 101 L 541 102 L 541 104 L 542 105 L 542 115 L 541 116 L 541 117 L 540 118 L 540 119 L 534 125 L 533 125 L 531 127 L 529 127 L 528 128 L 526 128 L 525 129 L 513 129 L 512 128 L 509 128 L 508 127 L 507 127 L 506 126 L 505 126 L 504 125 L 503 125 L 502 124 L 501 124 L 492 115 L 492 114 L 490 112 L 490 111 L 489 110 L 489 109 L 487 107 L 487 106 L 486 105 L 485 105 L 485 125 L 486 125 L 487 126 L 488 126 L 489 127 L 490 127 L 491 128 L 492 128 L 493 129 L 495 129 L 496 130 L 497 130 L 498 131 L 501 131 L 502 132 L 504 132 L 505 133 L 509 133 L 510 134 L 525 134 L 526 133 L 530 133 L 531 132 L 533 132 L 534 131 L 536 131 L 537 130 L 538 130 L 539 129 L 540 129 L 542 127 L 543 127 L 550 120 L 550 119 L 551 118 L 551 117 L 552 116 L 552 115 L 553 114 L 553 112 L 554 111 L 554 97 L 553 96 L 553 94 L 552 93 L 552 92 L 551 91 L 551 90 L 549 88 L 549 87 L 545 83 L 544 83 L 541 80 L 540 80 L 539 79 L 538 79 L 536 77 L 535 77 L 534 76 L 533 76 L 532 75 L 531 75 L 530 74 L 528 74 L 527 73 L 526 73 L 525 72 L 524 72 L 523 71 L 522 71 L 521 70 L 520 70 L 519 69 L 517 69 L 515 67 L 514 67 L 513 66 L 512 66 L 511 65 L 510 65 L 509 64 L 508 64 L 506 62 L 505 62 L 502 59 L 502 58 L 500 56 L 500 55 L 499 54 L 499 51 L 498 50 L 498 45 L 499 44 L 499 42 L 500 41 L 500 40 L 501 39 L 501 38 L 506 33 L 507 33 L 508 32 L 510 32 L 511 31 L 514 31 L 515 30 L 523 30 L 524 31 L 527 31 L 528 32 L 530 32 L 531 33 L 532 33 L 534 35 L 535 35 L 541 41 L 541 42 L 543 44 L 543 45 L 545 47 L 545 48 L 546 49 L 546 50 L 547 51 L 548 51 L 548 33 L 547 32 L 546 32 L 545 31 L 544 31 L 543 30 L 541 30 L 540 29 L 539 29 L 538 28 L 536 28 L 535 27 L 531 27 L 530 26 L 524 26 L 523 25 Z M 377 25 L 376 26 L 372 26 L 371 27 L 368 27 L 367 28 L 366 28 L 365 29 L 364 29 L 363 30 L 362 30 L 361 31 L 360 31 L 357 34 L 356 34 L 355 35 L 355 36 L 352 39 L 352 40 L 351 41 L 351 42 L 350 43 L 350 45 L 349 46 L 349 60 L 350 61 L 350 63 L 351 64 L 351 65 L 352 66 L 352 67 L 355 70 L 355 71 L 358 74 L 359 74 L 361 76 L 362 76 L 364 78 L 365 78 L 366 79 L 367 79 L 368 80 L 369 80 L 370 81 L 371 81 L 372 82 L 373 82 L 374 83 L 375 83 L 376 84 L 377 84 L 378 85 L 380 85 L 381 86 L 382 86 L 383 87 L 384 87 L 385 88 L 386 88 L 387 89 L 388 89 L 389 90 L 390 90 L 391 91 L 392 91 L 394 93 L 395 93 L 398 96 L 399 96 L 401 98 L 401 99 L 403 101 L 403 103 L 404 104 L 404 108 L 405 109 L 404 110 L 404 115 L 403 116 L 403 118 L 400 121 L 400 122 L 398 124 L 397 124 L 395 126 L 394 126 L 393 127 L 392 127 L 391 128 L 388 128 L 387 129 L 375 129 L 374 128 L 371 128 L 370 127 L 369 127 L 368 126 L 367 126 L 366 125 L 365 125 L 363 123 L 362 123 L 355 116 L 355 115 L 353 113 L 353 112 L 352 111 L 352 110 L 350 108 L 350 107 L 349 106 L 349 105 L 348 105 L 348 125 L 349 126 L 350 126 L 351 127 L 352 127 L 353 128 L 355 128 L 356 129 L 357 129 L 358 130 L 360 130 L 361 131 L 363 131 L 364 132 L 367 132 L 368 133 L 372 133 L 373 134 L 388 134 L 389 133 L 393 133 L 394 132 L 396 132 L 397 131 L 398 131 L 399 130 L 401 130 L 403 128 L 404 128 L 406 126 L 407 126 L 410 123 L 410 122 L 412 120 L 412 119 L 414 117 L 414 115 L 415 114 L 415 113 L 416 112 L 416 108 L 417 107 L 417 102 L 416 101 L 416 96 L 415 95 L 415 94 L 414 93 L 414 92 L 413 91 L 413 90 L 412 89 L 412 88 L 406 82 L 405 82 L 403 80 L 402 80 L 400 78 L 399 78 L 398 77 L 397 77 L 396 76 L 395 76 L 394 75 L 393 75 L 392 74 L 391 74 L 390 73 L 388 73 L 387 72 L 386 72 L 385 71 L 384 71 L 383 70 L 382 70 L 381 69 L 380 69 L 379 68 L 378 68 L 377 67 L 376 67 L 375 66 L 374 66 L 373 65 L 372 65 L 371 64 L 370 64 L 368 62 L 367 62 L 363 58 L 363 57 L 362 56 L 362 55 L 361 54 L 361 52 L 360 51 L 360 45 L 361 44 L 361 41 L 362 40 L 362 39 L 368 33 L 369 33 L 370 32 L 371 32 L 372 31 L 375 31 L 376 30 L 386 30 L 387 31 L 389 31 L 390 32 L 392 32 L 393 33 L 394 33 L 396 35 L 397 35 L 404 42 L 404 43 L 406 45 L 406 46 L 407 47 L 407 48 L 408 49 L 408 50 L 409 51 L 410 51 L 410 33 L 409 32 L 408 32 L 407 31 L 406 31 L 405 30 L 403 30 L 402 29 L 400 29 L 399 28 L 397 28 L 396 27 L 393 27 L 392 26 L 387 26 L 386 25 Z" fill="#041632" fill-rule="evenodd" transform="translate(60 315)"/>
<path d="M 674 22 L 674 50 L 673 51 L 673 52 L 695 52 L 695 49 L 679 49 L 678 48 L 678 39 L 679 38 L 691 38 L 691 35 L 679 35 L 678 34 L 678 25 L 679 24 L 694 24 L 694 22 Z M 544 22 L 544 52 L 547 52 L 547 30 L 548 29 L 554 35 L 554 36 L 559 41 L 559 42 L 563 46 L 563 47 L 567 51 L 567 52 L 571 52 L 571 22 L 568 22 L 568 43 L 567 44 L 563 40 L 563 39 L 559 35 L 559 34 L 555 30 L 555 29 L 550 24 L 550 23 L 549 22 Z M 484 22 L 484 52 L 505 52 L 505 49 L 489 49 L 488 48 L 488 44 L 489 43 L 489 39 L 490 38 L 501 38 L 501 35 L 489 35 L 488 34 L 488 26 L 490 24 L 504 24 L 504 22 Z M 373 22 L 373 52 L 378 52 L 378 22 Z M 316 22 L 316 52 L 336 52 L 336 49 L 321 49 L 320 48 L 321 47 L 321 38 L 320 37 L 320 24 L 321 23 L 321 22 Z M 259 22 L 259 52 L 279 52 L 279 49 L 264 49 L 263 48 L 263 22 Z M 200 22 L 200 52 L 221 52 L 221 49 L 206 49 L 205 48 L 205 39 L 206 38 L 218 38 L 218 35 L 206 35 L 205 34 L 205 25 L 206 24 L 219 24 L 220 25 L 221 24 L 221 22 Z M 138 22 L 138 24 L 145 24 L 146 25 L 147 24 L 149 26 L 149 52 L 153 52 L 153 26 L 155 24 L 162 24 L 163 25 L 164 25 L 164 22 Z M 74 22 L 74 52 L 77 52 L 77 30 L 78 29 L 79 29 L 81 31 L 81 32 L 85 36 L 85 37 L 90 42 L 90 43 L 94 47 L 94 48 L 97 51 L 97 52 L 101 52 L 101 22 L 98 22 L 98 43 L 97 44 L 95 42 L 95 41 L 91 37 L 91 36 L 86 31 L 86 30 L 81 25 L 81 24 L 79 22 Z M 30 22 L 30 52 L 35 52 L 35 22 Z M 620 21 L 619 22 L 617 22 L 616 23 L 615 23 L 613 25 L 612 25 L 612 26 L 609 29 L 609 30 L 608 31 L 608 34 L 607 35 L 607 40 L 608 41 L 608 43 L 609 44 L 609 45 L 610 46 L 610 47 L 613 50 L 614 50 L 615 51 L 616 51 L 617 52 L 620 52 L 621 53 L 625 53 L 626 52 L 629 52 L 630 51 L 631 51 L 633 49 L 634 49 L 634 48 L 636 46 L 636 45 L 635 44 L 633 44 L 633 45 L 630 48 L 629 48 L 628 49 L 626 49 L 625 50 L 623 50 L 622 49 L 619 49 L 617 47 L 616 47 L 615 46 L 615 45 L 613 43 L 613 41 L 612 40 L 612 34 L 613 33 L 613 31 L 614 30 L 614 29 L 618 25 L 619 25 L 620 24 L 626 24 L 627 25 L 628 25 L 629 26 L 630 26 L 633 29 L 633 30 L 634 30 L 635 29 L 636 29 L 636 28 L 635 27 L 635 26 L 632 23 L 631 23 L 630 22 L 627 22 L 626 21 Z M 421 24 L 418 27 L 418 28 L 417 29 L 417 30 L 416 31 L 416 33 L 415 34 L 415 40 L 416 41 L 416 43 L 417 44 L 417 45 L 418 46 L 418 47 L 421 50 L 422 50 L 423 51 L 424 51 L 425 52 L 427 52 L 428 53 L 433 53 L 434 52 L 436 52 L 437 51 L 438 51 L 440 49 L 441 49 L 442 50 L 442 52 L 445 52 L 445 37 L 433 37 L 433 38 L 432 39 L 433 40 L 439 40 L 440 39 L 441 40 L 441 44 L 436 49 L 433 49 L 432 50 L 430 50 L 429 49 L 427 49 L 426 48 L 425 48 L 422 45 L 422 44 L 421 43 L 421 42 L 420 41 L 420 33 L 421 32 L 421 30 L 426 25 L 428 25 L 429 24 L 433 24 L 434 25 L 436 25 L 437 26 L 438 26 L 441 29 L 441 30 L 442 30 L 443 29 L 444 29 L 444 28 L 443 27 L 443 26 L 440 23 L 439 23 L 438 22 L 435 22 L 434 21 L 428 21 L 427 22 L 425 22 L 424 23 L 423 23 L 422 24 Z" fill="#C6A15B" fill-rule="evenodd" transform="translate(137.5 475)"/>
<path d="M 23 18 L 23 19 L 24 20 L 101 20 L 101 18 Z" fill="#C6A15B" fill-rule="evenodd" transform="translate(437.5 555)"/>
<path d="M 587 21 L 588 20 L 589 21 L 588 22 Z M 641 18 L 643 20 L 643 22 L 644 23 L 644 24 L 645 25 L 644 26 L 639 26 L 638 25 L 639 24 L 639 22 L 640 21 L 640 19 Z M 616 18 L 617 17 L 622 17 L 624 19 L 624 22 L 623 23 L 622 23 L 621 24 L 617 24 L 616 23 Z M 346 18 L 347 17 L 352 17 L 354 19 L 354 21 L 351 24 L 347 24 L 346 23 Z M 301 18 L 302 17 L 307 17 L 309 19 L 309 21 L 307 23 L 302 23 L 301 22 Z M 258 18 L 259 17 L 264 17 L 265 18 L 265 22 L 264 23 L 262 23 L 261 24 L 259 24 L 258 23 Z M 682 15 L 682 17 L 687 17 L 688 18 L 688 24 L 687 25 L 687 31 L 689 31 L 689 18 L 690 17 L 694 17 L 695 16 L 694 15 Z M 663 15 L 662 16 L 661 16 L 659 18 L 659 19 L 658 20 L 658 26 L 659 27 L 659 28 L 662 31 L 664 31 L 665 32 L 666 32 L 667 31 L 669 31 L 670 30 L 671 30 L 672 29 L 672 27 L 671 27 L 668 30 L 663 30 L 661 28 L 661 27 L 660 26 L 660 21 L 661 20 L 661 19 L 663 17 L 668 17 L 671 20 L 672 20 L 672 18 L 670 16 L 669 16 L 668 15 Z M 641 15 L 640 16 L 640 17 L 639 18 L 639 20 L 638 21 L 638 22 L 637 23 L 637 24 L 636 25 L 636 27 L 635 28 L 635 30 L 634 31 L 636 31 L 636 30 L 637 29 L 637 28 L 638 27 L 645 27 L 646 28 L 646 29 L 647 30 L 647 31 L 649 31 L 648 30 L 648 28 L 647 27 L 647 26 L 646 25 L 646 23 L 645 22 L 645 21 L 644 20 L 644 19 L 643 18 L 643 16 L 642 15 Z M 622 15 L 615 15 L 615 31 L 616 31 L 616 26 L 617 25 L 622 25 L 623 24 L 624 24 L 626 22 L 626 19 L 625 18 L 625 17 L 624 16 L 623 16 Z M 586 15 L 586 31 L 588 31 L 588 22 L 589 21 L 590 22 L 590 23 L 591 24 L 591 26 L 592 27 L 592 28 L 593 29 L 593 30 L 594 31 L 595 31 L 595 30 L 596 29 L 596 28 L 597 27 L 597 25 L 598 24 L 598 23 L 599 22 L 599 21 L 600 20 L 601 21 L 601 31 L 602 31 L 602 24 L 603 23 L 603 16 L 602 15 L 600 15 L 600 16 L 599 17 L 599 18 L 598 19 L 598 21 L 597 22 L 597 23 L 596 24 L 596 25 L 595 26 L 595 27 L 594 28 L 593 27 L 593 25 L 592 24 L 592 23 L 591 22 L 591 20 L 590 19 L 590 18 L 589 17 L 589 16 L 588 15 Z M 572 15 L 572 31 L 574 31 L 574 16 L 573 15 Z M 472 15 L 471 16 L 471 31 L 482 31 L 482 30 L 474 30 L 473 29 L 473 25 L 474 24 L 480 24 L 480 23 L 474 23 L 473 22 L 473 18 L 474 17 L 481 17 L 482 16 L 481 15 L 480 16 L 479 15 Z M 447 15 L 447 17 L 448 18 L 448 20 L 449 21 L 449 23 L 450 24 L 450 25 L 451 26 L 451 28 L 452 29 L 452 31 L 455 31 L 455 30 L 456 29 L 456 27 L 457 26 L 457 25 L 458 24 L 458 22 L 459 21 L 459 20 L 460 19 L 460 17 L 461 16 L 461 15 L 460 15 L 459 16 L 459 17 L 458 18 L 458 19 L 457 20 L 457 22 L 456 23 L 456 25 L 455 26 L 455 27 L 454 28 L 452 26 L 452 24 L 451 23 L 451 21 L 450 20 L 450 19 L 449 18 L 449 16 L 448 15 Z M 435 15 L 434 16 L 434 31 L 436 31 L 436 16 Z M 412 15 L 411 16 L 411 17 L 416 17 L 417 18 L 417 31 L 418 31 L 418 18 L 419 17 L 423 17 L 424 16 L 423 15 Z M 393 15 L 392 16 L 391 16 L 390 17 L 389 17 L 389 18 L 388 19 L 388 20 L 387 21 L 387 26 L 388 27 L 388 28 L 391 31 L 393 31 L 394 32 L 396 32 L 397 31 L 398 31 L 399 30 L 400 30 L 401 29 L 401 27 L 400 27 L 397 30 L 392 30 L 390 28 L 390 27 L 389 26 L 389 20 L 392 17 L 398 17 L 399 18 L 399 19 L 400 20 L 401 20 L 401 18 L 399 16 L 398 16 L 397 15 Z M 367 15 L 366 16 L 366 20 L 367 21 L 367 31 L 377 31 L 377 30 L 369 30 L 368 29 L 368 25 L 369 24 L 375 24 L 375 23 L 374 22 L 373 22 L 372 23 L 369 23 L 368 22 L 368 18 L 369 17 L 376 17 L 377 16 L 376 15 Z M 354 16 L 353 16 L 352 15 L 345 15 L 344 16 L 344 31 L 346 31 L 346 26 L 347 25 L 352 25 L 353 24 L 354 24 L 355 23 L 355 22 L 356 21 L 356 19 L 355 18 L 355 17 Z M 325 15 L 324 16 L 323 16 L 322 17 L 322 21 L 324 23 L 325 23 L 326 24 L 329 24 L 331 26 L 331 29 L 330 30 L 325 30 L 323 28 L 323 27 L 322 27 L 321 28 L 324 31 L 327 31 L 328 32 L 329 31 L 331 31 L 333 29 L 333 25 L 332 24 L 331 24 L 330 23 L 328 23 L 327 22 L 326 22 L 323 19 L 325 17 L 326 17 L 327 16 L 328 16 L 329 17 L 330 17 L 331 18 L 331 19 L 332 19 L 333 18 L 330 15 Z M 300 15 L 300 31 L 301 31 L 301 26 L 303 24 L 304 24 L 307 27 L 307 28 L 308 29 L 308 30 L 309 31 L 311 31 L 310 30 L 310 29 L 309 28 L 309 27 L 307 25 L 309 23 L 310 23 L 310 22 L 311 21 L 311 19 L 310 18 L 310 17 L 309 16 L 308 16 L 307 15 Z M 278 15 L 278 31 L 288 31 L 288 30 L 281 30 L 280 29 L 280 25 L 281 24 L 287 24 L 287 23 L 286 22 L 285 23 L 281 23 L 280 22 L 280 18 L 281 17 L 288 17 L 288 15 Z M 265 16 L 264 16 L 263 15 L 257 15 L 256 16 L 256 31 L 258 31 L 258 26 L 259 25 L 264 25 L 267 22 L 267 18 Z M 155 15 L 154 16 L 155 17 L 159 17 L 160 18 L 160 31 L 161 31 L 161 18 L 162 17 L 166 17 L 167 16 L 166 15 Z M 131 15 L 131 31 L 132 31 L 132 25 L 133 24 L 141 24 L 142 25 L 142 31 L 143 31 L 143 15 L 142 15 L 142 21 L 140 23 L 139 23 L 138 22 L 133 22 L 132 21 L 132 15 Z M 108 16 L 105 19 L 105 20 L 104 21 L 104 26 L 105 27 L 105 28 L 108 31 L 115 31 L 116 30 L 117 30 L 118 31 L 119 31 L 119 24 L 118 23 L 113 23 L 112 24 L 113 25 L 115 25 L 116 24 L 117 25 L 117 27 L 114 30 L 110 30 L 109 29 L 108 29 L 107 28 L 107 27 L 106 26 L 106 21 L 107 20 L 107 19 L 109 17 L 111 17 L 112 16 L 113 17 L 115 17 L 117 19 L 117 20 L 118 20 L 118 18 L 116 16 L 115 16 L 114 15 L 110 15 L 109 16 Z M 92 15 L 91 16 L 91 31 L 93 31 L 93 16 Z M 72 15 L 71 16 L 70 16 L 69 17 L 69 18 L 68 19 L 68 20 L 69 21 L 69 22 L 70 23 L 72 23 L 73 24 L 75 24 L 76 25 L 77 25 L 78 26 L 78 29 L 77 30 L 72 30 L 69 27 L 68 28 L 68 29 L 70 31 L 73 31 L 74 32 L 75 32 L 76 31 L 78 31 L 79 30 L 79 29 L 80 28 L 80 26 L 79 25 L 79 24 L 78 24 L 77 23 L 75 23 L 74 22 L 72 22 L 70 20 L 70 19 L 72 17 L 73 17 L 74 16 L 75 17 L 76 17 L 78 19 L 79 19 L 79 17 L 78 16 L 77 16 L 76 15 Z M 44 15 L 44 31 L 45 31 L 45 20 L 46 19 L 48 21 L 48 22 L 51 25 L 51 26 L 52 27 L 52 28 L 54 30 L 54 31 L 57 31 L 57 16 L 56 15 L 55 16 L 55 26 L 54 27 L 52 25 L 52 24 L 50 22 L 50 21 L 48 19 L 48 18 L 45 15 Z M 31 15 L 30 16 L 30 31 L 31 31 Z" fill="#041632" fill-rule="evenodd" transform="translate(140 630)"/>
<path d="M 358 12 L 357 12 L 357 35 L 357 25 L 358 24 L 358 23 L 357 22 L 357 14 L 358 13 Z M 40 12 L 40 35 L 41 35 L 41 12 Z" fill="#C6A15B" fill-rule="evenodd" transform="translate(305 630)"/>
</svg>
